<svg xmlns="http://www.w3.org/2000/svg" xmlns:xlink="http://www.w3.org/1999/xlink" xmlns:lucid="lucid" width="550.62" height="402.67"><g transform="translate(-270.7182232797936 -174.66666666666666)" lucid:page-tab-id="hzy0Z46Ha66z"><path d="M469.38 480.33v-220.5M469.38 480.3v1.03" stroke="#000" stroke-width="2" fill="none"/><path d="M469.38 244.57l4.64 14.27h-9.27z" stroke="#000" stroke-width="2"/><path d="M488.05 480c0 9.57-7.76 17.33-17.33 17.33-9.57 0-17.34-7.76-17.34-17.33 0-9.57 7.77-17.33 17.34-17.33s17.33 7.76 17.33 17.33z" stroke="#000" stroke-width="2" fill-opacity="0"/><path d="M681.33 453.5h120v60h-120z" stroke="#000" stroke-opacity="0" stroke-width="2" fill="#fff" fill-opacity="0"/><use xlink:href="#a" transform="matrix(1,0,0,1,686.3333333333334,458.5001569522068) translate(37.37037037037037 31.138888888888893)"/><path d="M591.08 480.34l-.88-10.32-2.7-9.66-3-6.8-5.5-9.74M591.08 480.3l.1 1.03" stroke="#000" stroke-width="2" fill="none"/><path d="M571.5 430.54l11.04 10.13-8.07 4.57z" stroke="#000" stroke-width="2"/><path d="M409.33 194.67h120v60h-120z" stroke="#000" stroke-opacity="0" stroke-width="2" fill="#fff" fill-opacity="0"/><use xlink:href="#b" transform="matrix(1,0,0,1,414.33333333333337,199.66666666666666) translate(37.37037037037037 31.138888888888893)"/><path d="M380 497.33h120v60H380z" stroke="#000" stroke-opacity="0" stroke-width="2" fill="#fff" fill-opacity="0"/><use xlink:href="#c" transform="matrix(1,0,0,1,385,502.3333333333334) translate(3.8395061728395063 31.138888888888893)"/><use xlink:href="#d" transform="matrix(1,0,0,1,385,502.3333333333334) translate(45.925925925925924 31.138888888888893)"/><use xlink:href="#e" transform="matrix(1,0,0,1,385,502.3333333333334) translate(72.71604938271605 31.138888888888893)"/><path d="M290.72 224h120v60h-120z" stroke="#000" stroke-opacity="0" stroke-width="2" fill="#fff" fill-opacity="0"/><use xlink:href="#f" transform="matrix(1,0,0,1,295.7182232797936,228.99999999999997) translate(37.37037037037037 31.138888888888893)"/><path d="M645.33 334.67h120v60h-120z" stroke="#000" stroke-opacity="0" stroke-width="2" fill="#fff" fill-opacity="0"/><use xlink:href="#g" transform="matrix(1,0,0,1,650.3333333333333,339.6666666666667) translate(37.37037037037037 31.138888888888893)"/><path d="M470.38 481.33h220.5M470.4 481.33h-1.02" stroke="#000" stroke-width="2" fill="none"/><path d="M706.15 481.33l-14.27 4.64v-9.27z" stroke="#000" stroke-width="2"/><path d="M469.5 479.74L665.26 378.3M469.5 479.72l-.9.48" stroke="#000" stroke-width="2" fill="none"/><path d="M678.83 371.3l-10.54 10.66-4.27-8.23z" stroke="#000" stroke-width="2"/><path d="M468.14 479.3L366.7 283.53M468.13 479.3l.47.9" stroke="#000" stroke-width="2" fill="none"/><path d="M359.7 269.97l10.67 10.53-8.23 4.27z" stroke="#000" stroke-width="2"/><path d="M596.38 428h22.54v43.6h-22.54z" fill="#fff" fill-opacity="0"/><path d="M598.42 465.22l5.04-20.83c1.48-6.2 2.48-7.54 5.8-10.4 1.47-1.27 3.34-2.4 5.34-2.4 2.4 0 4.3 2 4.3 4.96 0 3.17-1.65 6.56-4.35 7.78v.05c1.8.46 2.44 2.38 2.44 4.42 0 2.87-1.32 6.35-2.75 8.18-1.9 2.43-4.78 4.17-8.35 4.17-1.1 0-1.87-.17-2.78-.9l-1.22 5.3c-.26 1.2-.78 2.56-1 3.04h-3.44c.3-.7.74-2.47.96-3.38zm9.52-24.53l-4.43 18.2c.75.8 1.62 1 2.14 1 5.1 0 7.65-7.86 7.65-12.08 0-1.48-.22-2.74-.92-2.74-.83 0-1.04.35-1.83.35-.78 0-1.4-.44-1.4-.96 0-.48.5-1.17 2.06-1.17.35 0 1.3.22 1.92.22 1.9 0 2.6-4.3 2.6-5.4 0-2-.73-4.34-2.64-4.34-3.27 0-4.22 3.2-5.14 6.9"/><path d="M469.38 474.63V354.1M469.38 474.5v5.13" stroke="#c92d39" stroke-width="10" fill="none"/><path d="M469.38 334.85l4.64 14.26h-9.27z" stroke="#c92d39" stroke-width="10" fill="#c92d39"/><path d="M484.05 326.4h31.84v30.44h-31.85z" fill="#fff" fill-opacity="0"/><path d="M515.2 330.93V332c-1.14.2-1.62.7-2.2 2.2l-6.82 17.66h-1.02l-4.5-13.66-5.5 13.66h-1.06l-6.52-16.48c-1.1-2.73-1.37-3.17-2.5-3.4v-1.05h9.77V332c-1.24.16-1.68.47-1.68 1.22 0 .58.53 1.94 1.72 5.07l1.98 5.2 3-7.55c-.1-.26-.18-.52-.27-.83-.83-2.9-.87-2.96-2.6-3.13v-1.07h10.32V332c-1.67.12-2.1.34-2.1 1.05 0 .44.3 1.67 1.18 4.67.88 3.08 1.05 3.74 1.5 5.6l1.54-4.15c1.27-3.44 1.94-5.07 1.94-5.64 0-1-.5-1.37-2.12-1.54v-1.07h5.95"/><defs><path d="M195 0l-74-108L45 0H8l94-129-87-119h37l69 98 67-98h37l-84 118L233 0h-38" id="h"/><path d="M205 0l-28-72H64L36 0H1l101-248h38L239 0h-34zm-38-99l-47-123c-12 45-31 82-46 123h93" id="i"/><g id="a"><use transform="matrix(0.08641975308641976,0,0,0.08641975308641976,0,0)" xlink:href="#h"/><use transform="matrix(0.06049382716049383,0,0,0.06049382716049383,20.740740740740744,-8.71111111111111)" xlink:href="#i"/></g><path d="M137-103V0h-34v-103L8-248h37l75 118 75-118h37" id="j"/><g id="b"><use transform="matrix(0.08641975308641976,0,0,0.08641975308641976,0,0)" xlink:href="#j"/><use transform="matrix(0.06049382716049383,0,0,0.06049382716049383,20.740740740740744,-8.71111111111111)" xlink:href="#i"/></g><path d="M209 0H11v-25l151-195H24v-28h176v25L50-27h159V0" id="k"/><g id="c"><use transform="matrix(0.08641975308641976,0,0,0.08641975308641976,0,0)" xlink:href="#k"/><use transform="matrix(0.06049382716049383,0,0,0.06049382716049383,18.925925925925927,-8.71111111111111)" xlink:href="#i"/></g><path d="M18-150v-26h174v26H18zm0 90v-26h174v26H18" id="l"/><use transform="matrix(0.08641975308641976,0,0,0.08641975308641976,0,0)" xlink:href="#l" id="d"/><path d="M160-131c35 5 61 23 61 61C221 17 115-2 30 0v-248c76 3 177-17 177 60 0 33-19 50-47 57zm-97-11c50-1 110 9 110-42 0-47-63-36-110-37v79zm0 115c55-2 124 14 124-45 0-56-70-42-124-44v89" id="m"/><g id="e"><use transform="matrix(0.08641975308641976,0,0,0.08641975308641976,0,0)" xlink:href="#k"/><use transform="matrix(0.06049382716049383,0,0,0.06049382716049383,18.925925925925927,-8.71111111111111)" xlink:href="#m"/></g><g id="f"><use transform="matrix(0.08641975308641976,0,0,0.08641975308641976,0,0)" xlink:href="#j"/><use transform="matrix(0.06049382716049383,0,0,0.06049382716049383,20.740740740740744,-8.71111111111111)" xlink:href="#m"/></g><g id="g"><use transform="matrix(0.08641975308641976,0,0,0.08641975308641976,0,0)" xlink:href="#h"/><use transform="matrix(0.06049382716049383,0,0,0.06049382716049383,20.740740740740744,-8.71111111111111)" xlink:href="#m"/></g></defs></g></svg>