<svg xmlns="http://www.w3.org/2000/svg" xmlns:xlink="http://www.w3.org/1999/xlink" xmlns:lucid="lucid" width="953.28" height="431.93"><g transform="translate(-280 -173.0666666666666)" lucid:page-tab-id="Hdx0IlZLG6J."><path d="M358.24 303.2h44.1v30.44h-44.1z" stroke="#000" stroke-opacity="0" stroke-width="2" fill="#fff" fill-opacity="0"/><use xlink:href="#a" transform="matrix(1,0,0,1,363.2413082421152,308.20892326849616) translate(13.796296296296296 13.291666666666668)"/><path d="M401.33 478.73v-220.5M401.33 478.7v1.03" stroke="#000" stroke-width="2" fill="none"/><path d="M401.33 242.97l4.64 14.27h-9.27z" stroke="#000" stroke-width="2"/><path d="M420 478.4c0 9.57-7.76 17.33-17.33 17.33-9.58 0-17.34-7.76-17.34-17.33 0-9.57 7.76-17.33 17.34-17.33 9.57 0 17.33 7.76 17.33 17.33z" stroke="#000" stroke-width="2" fill-opacity="0"/><path d="M613.28 451.9h120v60h-120z" stroke="#000" stroke-opacity="0" stroke-width="2" fill="#fff" fill-opacity="0"/><use xlink:href="#b" transform="matrix(1,0,0,1,618.2817767202064,456.90015695220677) translate(37.37037037037037 31.138888888888893)"/><path d="M341.28 193.07h120v60h-120z" stroke="#000" stroke-opacity="0" stroke-width="2" fill="#fff" fill-opacity="0"/><use xlink:href="#c" transform="matrix(1,0,0,1,346.28177672020644,198.0666666666666) translate(37.37037037037037 31.138888888888893)"/><path d="M300 461.07h120v84.66H300z" stroke="#000" stroke-opacity="0" stroke-width="2" fill="#fff" fill-opacity="0"/><use xlink:href="#d" transform="matrix(1,0,0,1,305,466.0666666666667) translate(38.27777777777778 43.63888888888889)"/><path d="M402.33 479.73h220.5M402.36 479.73h-1.03" stroke="#000" stroke-width="2" fill="none"/><path d="M638.1 479.73l-14.27 4.64v-9.27z" stroke="#000" stroke-width="2"/><path d="M401.33 473.02V353.66M401.33 472.9v5.13" stroke="#c92d39" stroke-width="10" fill="none"/><path d="M401.33 334.4l4.64 14.26h-9.27z" stroke="#c92d39" stroke-width="10" fill="#c92d39"/><path d="M416 324.8h31.84v30.44H416z" fill="#fff" fill-opacity="0"/><path d="M447.16 329.33v1.06c-1.15.2-1.63.7-2.2 2.2l-6.84 17.66h-1l-4.5-13.66-5.5 13.66h-1.07l-6.52-16.48c-1.1-2.73-1.37-3.17-2.52-3.4v-1.05h9.8v1.06c-1.24.16-1.68.47-1.68 1.22 0 .58.53 1.94 1.72 5.07l1.98 5.2 3-7.55c-.1-.26-.17-.52-.26-.83-.84-2.9-.88-2.96-2.6-3.13v-1.07h10.3v1.06c-1.67.12-2.1.34-2.1 1.05 0 .44.3 1.67 1.18 4.67.9 3.08 1.06 3.74 1.5 5.6l1.54-4.15c1.28-3.44 1.94-5.07 1.94-5.64 0-1-.48-1.37-2.1-1.54v-1.07h5.94"/><path d="M359.2 516.33h326.62V585H359.2z" stroke="#000" stroke-opacity="0" stroke-width="2" fill="#fff" fill-opacity="0"/><use xlink:href="#e" transform="matrix(1,0,0,1,364.20000000000005,521.3333333333333) translate(3.1296296296296475 32.52777777777777)"/><use xlink:href="#f" transform="matrix(1,0,0,1,364.20000000000005,521.3333333333333) translate(96.89506172839505 32.52777777777777)"/><use xlink:href="#g" transform="matrix(1,0,0,1,364.20000000000005,521.3333333333333) translate(205.47530864197526 32.52777777777777)"/><use xlink:href="#h" transform="matrix(1,0,0,1,364.20000000000005,521.3333333333333) translate(228.87037037037032 32.52777777777777)"/><use xlink:href="#i" transform="matrix(1,0,0,1,364.20000000000005,521.3333333333333) translate(299.05555555555554 32.52777777777777)"/><path d="M436.48 539.48h18.56v17.73h-18.56z" fill="#fff" fill-opacity="0"/><path d="M454.64 542.12v.6c-.67.14-.95.43-1.3 1.3l-3.97 10.3h-.6l-2.6-7.96-3.22 7.96h-.6l-3.8-9.6c-.66-1.6-.8-1.86-1.48-2v-.6h5.7v.6c-.72.12-.97.3-.97.73 0 .34.3 1.13 1 2.96l1.16 3.04 1.74-4.4-.15-.48c-.5-1.7-.52-1.72-1.52-1.83v-.6h6v.6c-.96.08-1.22.2-1.22.62 0 .26.2.98.7 2.72.52 1.8.62 2.2.88 3.26l.9-2.4c.74-2 1.12-2.96 1.12-3.3 0-.6-.28-.8-1.23-.9v-.6h3.47"/><path d="M391.78 318.4h19M391.8 318.4h-.52M410.77 318.4h.5" stroke="#000" fill="none"/><path d="M539.15 485.06h44.1v30.42h-44.1z" stroke="#000" stroke-opacity="0" stroke-width="2" fill="#fff" fill-opacity="0"/><use xlink:href="#a" transform="matrix(1,0,0,1,544.148443386873,490.0563430465497) translate(13.796296296296296 13.291666666666668)"/><path d="M561.15 488.4v-19M561.15 488.4v.5M561.15 469.4v-.5" stroke="#000" fill="none"/><path d="M838.24 303.2h44.1v30.44h-44.1z" stroke="#000" stroke-opacity="0" stroke-width="2" fill="#fff" fill-opacity="0"/><use xlink:href="#a" transform="matrix(1,0,0,1,843.2413082421152,308.2089232684962) translate(13.796296296296296 13.291666666666668)"/><path d="M881.33 478.73v-220.5M881.33 478.7v1.03" stroke="#000" stroke-width="2" fill="none"/><path d="M881.33 242.97l4.64 14.27h-9.27z" stroke="#000" stroke-width="2"/><path d="M900 478.4c0 9.57-7.76 17.33-17.33 17.33-9.58 0-17.34-7.76-17.34-17.33 0-9.57 7.76-17.33 17.34-17.33 9.57 0 17.33 7.76 17.33 17.33z" stroke="#000" stroke-width="2" fill-opacity="0"/><path d="M1093.28 451.9h120v60h-120z" stroke="#000" stroke-opacity="0" stroke-width="2" fill="#fff" fill-opacity="0"/><use xlink:href="#j" transform="matrix(1,0,0,1,1098.2817767202064,456.90015695220677) translate(37.37037037037037 31.138888888888893)"/><path d="M821.28 193.07h120v60h-120z" stroke="#000" stroke-opacity="0" stroke-width="2" fill="#fff" fill-opacity="0"/><use xlink:href="#k" transform="matrix(1,0,0,1,826.2817767202064,198.0666666666666) translate(37.37037037037037 31.138888888888893)"/><path d="M780 461.07h120v84.66H780z" stroke="#000" stroke-opacity="0" stroke-width="2" fill="#fff" fill-opacity="0"/><use xlink:href="#l" transform="matrix(1,0,0,1,785,466.0666666666667) translate(38.27777777777778 43.63888888888889)"/><path d="M882.33 479.73h220.5M882.36 479.73h-1.03" stroke="#000" stroke-width="2" fill="none"/><path d="M1118.1 479.73l-14.27 4.64v-9.27z" stroke="#000" stroke-width="2"/><path d="M883.84 473.7l57.9-100.14M883.9 473.6l-2.57 4.42" stroke="#c92d39" stroke-width="10" fill="none"/><path d="M951.4 356.88l-3.13 14.67-8.03-4.64z" stroke="#c92d39" stroke-width="10" fill="#c92d39"/><path d="M964.22 327.85h31.84v30.43h-31.84z" fill="#fff" fill-opacity="0"/><path d="M995.38 332.37v1.06c-1.15.22-1.63.7-2.2 2.2l-6.84 17.68h-1l-4.5-13.65-5.5 13.66h-1.07l-6.52-16.48c-1.1-2.73-1.37-3.17-2.52-3.4v-1.05h9.8v1.06c-1.25.18-1.7.5-1.7 1.24 0 .57.54 1.93 1.73 5.06l1.98 5.2 3-7.53c-.1-.27-.18-.53-.26-.84-.84-2.9-.88-2.95-2.6-3.13v-1.06h10.3v1.06c-1.67.13-2.1.35-2.1 1.06 0 .43.3 1.66 1.18 4.66.88 3.1 1.06 3.75 1.5 5.6l1.54-4.15c1.28-3.42 1.94-5.05 1.94-5.63 0-1-.48-1.36-2.1-1.54v-1.06h5.94"/><path d="M839.2 516.33h326.62V585H839.2z" stroke="#000" stroke-opacity="0" stroke-width="2" fill="#fff" fill-opacity="0"/><use xlink:href="#e" transform="matrix(1,0,0,1,844.2,521.3333333333333) translate(3.1296296296296475 32.52777777777777)"/><use xlink:href="#f" transform="matrix(1,0,0,1,844.2,521.3333333333333) translate(96.89506172839505 32.52777777777777)"/><use xlink:href="#g" transform="matrix(1,0,0,1,844.2,521.3333333333333) translate(205.47530864197526 32.52777777777777)"/><use xlink:href="#h" transform="matrix(1,0,0,1,844.2,521.3333333333333) translate(228.87037037037032 32.52777777777777)"/><use xlink:href="#m" transform="matrix(1,0,0,1,844.2,521.3333333333333) translate(299.05555555555554 32.52777777777777)"/><path d="M916.48 539.48h18.56v17.73h-18.56z" fill="#fff" fill-opacity="0"/><path d="M934.64 542.12v.6c-.67.14-.95.43-1.3 1.3l-3.97 10.3h-.6l-2.6-7.96-3.22 7.96h-.6l-3.8-9.6c-.66-1.6-.8-1.86-1.48-2v-.6h5.7v.6c-.72.12-.97.3-.97.73 0 .34.3 1.13 1 2.96l1.16 3.04 1.74-4.4-.15-.48c-.5-1.7-.52-1.72-1.52-1.83v-.6h6v.6c-.96.08-1.22.2-1.22.62 0 .26.2.98.7 2.72.52 1.8.62 2.2.88 3.26l.9-2.4c.74-2 1.12-2.96 1.12-3.3 0-.6-.28-.8-1.23-.9v-.6h3.47"/><path d="M871.78 318.4h19M871.8 318.4h-.52M890.77 318.4h.5" stroke="#000" fill="none"/><path d="M1019.15 485.06h44.1v30.42h-44.1z" stroke="#000" stroke-opacity="0" stroke-width="2" fill="#fff" fill-opacity="0"/><use xlink:href="#a" transform="matrix(1,0,0,1,1024.1484433868732,490.0563430465497) translate(13.796296296296296 13.291666666666668)"/><path d="M1041.15 488.4v-19M1041.15 488.4v.5M1041.15 469.4v-.5M960.33 479.23v-1.98m0-3.98l-.02-3.97m0-3.97v-3.98m-.02-3.97v-3.98m-.02-3.97v-3.97m-.02-3.98v-3.97m-.02-3.97v-3.97m-.02-3.97v-4m-.02-3.96v-3.97m-.02-3.98v-3.98m-.02-3.98v-3.97m-.02-3.97v-3.98m-.02-3.97v-3.97m-.02-3.98v-3.97m-.02-3.98v-3.97m0-3.97l-.02-3.97m0-3.97l-.02-3.97m0-4l-.02-1.98M960.33 479.22v.5M960 344.14v-.5M881.83 343.88h1.9m3.82 0h3.8m3.8 0h3.82m3.8 0h3.82m3.8 0h3.8m3.8 0h3.82m3.8 0h3.82m3.8 0h3.8m3.82 0h3.8m3.82 0h3.8m3.82 0h1.9M881.85 343.88h-.52M958 343.88h.5" stroke="#000" fill="none"/><path d="M836 330.4h44.1v30.43H836z" stroke="#000" stroke-opacity="0" stroke-width="2" fill="#fff" fill-opacity="0"/><g><use xlink:href="#n" transform="matrix(1,0,0,1,841,335.40000000000003) translate(0.8333333333333321 13.291666666666668)"/></g><path d="M939.2 480.8h44.1v30.43h-44.1z" stroke="#000" stroke-opacity="0" stroke-width="2" fill="#fff" fill-opacity="0"/><g><use xlink:href="#o" transform="matrix(1,0,0,1,944.1999999999999,485.8) translate(8.24074074074074 13.291666666666668)"/></g><path d="M397.8 301.46h120v60h-120z" stroke="#000" stroke-opacity="0" stroke-width="2" fill="#fff" fill-opacity="0"/><g><use xlink:href="#p" transform="matrix(1,0,0,1,402.81376825632987,306.45927365598186) translate(47.74074074074074 31.138888888888893)"/></g><path d="M944.22 304.24h120v60h-120z" stroke="#000" stroke-opacity="0" stroke-width="2" fill="#fff" fill-opacity="0"/><g><use xlink:href="#q" transform="matrix(1,0,0,1,949.2194985012767,309.2387177830476) translate(47.74074074074074 31.138888888888893)"/></g><defs><path d="M27 0v-27h64v-190l-56 39v-29l58-41h29v221h61V0H27" id="r"/><use transform="matrix(0.03703703703703704,0,0,0.03703703703703704,0,0)" xlink:href="#r" id="a"/><path d="M195 0l-74-108L45 0H8l94-129-87-119h37l69 98 67-98h37l-84 118L233 0h-38" id="s"/><path d="M205 0l-28-72H64L36 0H1l101-248h38L239 0h-34zm-38-99l-47-123c-12 45-31 82-46 123h93" id="t"/><g id="b"><use transform="matrix(0.08641975308641976,0,0,0.08641975308641976,0,0)" xlink:href="#s"/><use transform="matrix(0.06049382716049383,0,0,0.06049382716049383,20.740740740740744,-8.71111111111111)" xlink:href="#t"/></g><path d="M137-103V0h-34v-103L8-248h37l75 118 75-118h37" id="u"/><g id="c"><use transform="matrix(0.08641975308641976,0,0,0.08641975308641976,0,0)" xlink:href="#u"/><use transform="matrix(0.06049382716049383,0,0,0.06049382716049383,20.740740740740744,-8.71111111111111)" xlink:href="#t"/></g><path d="M209 0H11v-25l151-195H24v-28h176v25L50-27h159V0" id="v"/><g id="d"><use transform="matrix(0.08641975308641976,0,0,0.08641975308641976,0,0)" xlink:href="#v"/><use transform="matrix(0.06049382716049383,0,0,0.06049382716049383,18.925925925925927,-8.71111111111111)" xlink:href="#t"/></g><path d="M137 0h-34L2-248h35l83 218 83-218h36" id="w"/><path d="M100-194c63 0 86 42 84 106H49c0 40 14 67 53 68 26 1 43-12 49-29l28 8c-11 28-37 45-77 45C44 4 14-33 15-96c1-61 26-98 85-98zm52 81c6-60-76-77-97-28-3 7-6 17-6 28h103" id="x"/><path d="M96-169c-40 0-48 33-48 73s9 75 48 75c24 0 41-14 43-38l32 2c-6 37-31 61-74 61-59 0-76-41-82-99-10-93 101-131 147-64 4 7 5 14 7 22l-32 3c-4-21-16-35-41-35" id="y"/><path d="M59-47c-2 24 18 29 38 22v24C64 9 27 4 27-40v-127H5v-23h24l9-43h21v43h35v23H59v120" id="z"/><path d="M100-194c62-1 85 37 85 99 1 63-27 99-86 99S16-35 15-95c0-66 28-99 85-99zM99-20c44 1 53-31 53-75 0-43-8-75-51-75s-53 32-53 75 10 74 51 75" id="A"/><path d="M114-163C36-179 61-72 57 0H25l-1-190h30c1 12-1 29 2 39 6-27 23-49 58-41v29" id="B"/><g id="e"><use transform="matrix(0.061728395061728385,0,0,0.061728395061728385,0,0)" xlink:href="#w"/><use transform="matrix(0.061728395061728385,0,0,0.061728395061728385,13.580246913580245,0)" xlink:href="#x"/><use transform="matrix(0.061728395061728385,0,0,0.061728395061728385,25.925925925925924,0)" xlink:href="#y"/><use transform="matrix(0.061728395061728385,0,0,0.061728395061728385,37.03703703703703,0)" xlink:href="#z"/><use transform="matrix(0.061728395061728385,0,0,0.061728395061728385,43.20987654320987,0)" xlink:href="#A"/><use transform="matrix(0.061728395061728385,0,0,0.061728395061728385,55.55555555555555,0)" xlink:href="#B"/></g><path d="M141 0L90-78 38 0H4l68-98-65-92h35l48 74 47-74h35l-64 92 68 98h-35" id="C"/><path d="M115-194c55 1 70 41 70 98S169 2 115 4C84 4 66-9 55-30l1 105H24l-1-265h31l2 30c10-21 28-34 59-34zm-8 174c40 0 45-34 45-75s-6-73-45-74c-42 0-51 32-51 76 0 43 10 73 51 73" id="D"/><path d="M135-143c-3-34-86-38-87 0 15 53 115 12 119 90S17 21 10-45l28-5c4 36 97 45 98 0-10-56-113-15-118-90-4-57 82-63 122-42 12 7 21 19 24 35" id="E"/><path d="M85-194c31 0 48 13 60 33l-1-100h32l1 261h-30c-2-10 0-23-3-31C134-8 116 4 85 4 32 4 16-35 15-94c0-66 23-100 70-100zm9 24c-40 0-46 34-46 75 0 40 6 74 45 74 42 0 51-32 51-76 0-42-9-74-50-73" id="F"/><g id="f"><use transform="matrix(0.061728395061728385,0,0,0.061728395061728385,0,0)" xlink:href="#x"/><use transform="matrix(0.061728395061728385,0,0,0.061728395061728385,12.345679012345677,0)" xlink:href="#C"/><use transform="matrix(0.061728395061728385,0,0,0.061728395061728385,23.456790123456784,0)" xlink:href="#D"/><use transform="matrix(0.061728395061728385,0,0,0.061728395061728385,35.80246913580246,0)" xlink:href="#B"/><use transform="matrix(0.061728395061728385,0,0,0.061728395061728385,43.14814814814814,0)" xlink:href="#x"/><use transform="matrix(0.061728395061728385,0,0,0.061728395061728385,55.493827160493815,0)" xlink:href="#E"/><use transform="matrix(0.061728395061728385,0,0,0.061728395061728385,66.60493827160492,0)" xlink:href="#E"/><use transform="matrix(0.061728395061728385,0,0,0.061728395061728385,77.71604938271604,0)" xlink:href="#x"/><use transform="matrix(0.061728395061728385,0,0,0.061728395061728385,90.06172839506172,0)" xlink:href="#F"/></g><path d="M24-231v-30h32v30H24zM24 0v-190h32V0H24" id="G"/><path d="M117-194c89-4 53 116 60 194h-32v-121c0-31-8-49-39-48C34-167 62-67 57 0H25l-1-190h30c1 10-1 24 2 32 11-22 29-35 61-36" id="H"/><g id="g"><use transform="matrix(0.061728395061728385,0,0,0.061728395061728385,0,0)" xlink:href="#G"/><use transform="matrix(0.061728395061728385,0,0,0.061728395061728385,4.876543209876543,0)" xlink:href="#H"/></g><path d="M63-220v92h138v28H63V0H30v-248h175v28H63" id="I"/><path d="M141-36C126-15 110 5 73 4 37 3 15-17 15-53c-1-64 63-63 125-63 3-35-9-54-41-54-24 1-41 7-42 31l-33-3c5-37 33-52 76-52 45 0 72 20 72 64v82c-1 20 7 32 28 27v20c-31 9-61-2-59-35zM48-53c0 20 12 33 32 33 41-3 63-29 60-74-43 2-92-5-92 41" id="J"/><path d="M210-169c-67 3-38 105-44 169h-31v-121c0-29-5-50-35-48C34-165 62-65 56 0H25l-1-190h30c1 10-1 24 2 32 10-44 99-50 107 0 11-21 27-35 58-36 85-2 47 119 55 194h-31v-121c0-29-5-49-35-48" id="K"/><g id="h"><use transform="matrix(0.061728395061728385,0,0,0.061728395061728385,0,0)" xlink:href="#I"/><use transform="matrix(0.061728395061728385,0,0,0.061728395061728385,13.518518518518515,0)" xlink:href="#B"/><use transform="matrix(0.061728395061728385,0,0,0.061728395061728385,20.864197530864192,0)" xlink:href="#J"/><use transform="matrix(0.061728395061728385,0,0,0.061728395061728385,33.20987654320987,0)" xlink:href="#K"/><use transform="matrix(0.061728395061728385,0,0,0.061728395061728385,51.66666666666666,0)" xlink:href="#x"/></g><use transform="matrix(0.061728395061728385,0,0,0.061728395061728385,0,0)" xlink:href="#t" id="i"/><path d="M160-131c35 5 61 23 61 61C221 17 115-2 30 0v-248c76 3 177-17 177 60 0 33-19 50-47 57zm-97-11c50-1 110 9 110-42 0-47-63-36-110-37v79zm0 115c55-2 124 14 124-45 0-56-70-42-124-44v89" id="L"/><g id="j"><use transform="matrix(0.08641975308641976,0,0,0.08641975308641976,0,0)" xlink:href="#s"/><use transform="matrix(0.06049382716049383,0,0,0.06049382716049383,20.740740740740744,-8.71111111111111)" xlink:href="#L"/></g><g id="k"><use transform="matrix(0.08641975308641976,0,0,0.08641975308641976,0,0)" xlink:href="#u"/><use transform="matrix(0.06049382716049383,0,0,0.06049382716049383,20.740740740740744,-8.71111111111111)" xlink:href="#L"/></g><g id="l"><use transform="matrix(0.08641975308641976,0,0,0.08641975308641976,0,0)" xlink:href="#v"/><use transform="matrix(0.06049382716049383,0,0,0.06049382716049383,18.925925925925927,-8.71111111111111)" xlink:href="#L"/></g><use transform="matrix(0.061728395061728385,0,0,0.061728395061728385,0,0)" xlink:href="#L" id="m"/><path d="M101-251c68 0 85 55 85 127S166 4 100 4C33 4 14-52 14-124c0-73 17-127 87-127zm-1 229c47 0 54-49 54-102s-4-102-53-102c-51 0-55 48-55 102 0 53 5 102 54 102" id="M"/><path d="M33 0v-38h34V0H33" id="N"/><path d="M134-131c28 9 52 24 51 62-1 50-34 73-85 73S17-19 16-69c0-36 21-54 49-61-75-25-45-126 34-121 46 3 78 18 79 63 0 33-17 51-44 57zm-34-11c31 1 46-15 46-44 0-28-17-43-47-42-29 0-46 13-45 42 1 28 16 44 46 44zm1 122c35 0 51-18 51-52 0-30-18-46-53-46-33 0-51 17-51 47 0 34 19 51 53 51" id="O"/><path d="M110-160c48 1 74 30 74 79 0 53-28 85-80 85-65 0-83-55-86-122-5-90 50-162 133-122 14 7 22 21 27 39l-31 6c-5-40-67-38-82-6-9 19-15 44-15 74 11-20 30-34 60-33zm-7 138c34 0 49-23 49-58s-16-56-50-56c-29 0-50 16-49 49 1 36 15 65 50 65" id="P"/><g id="n"><use transform="matrix(0.03703703703703704,0,0,0.03703703703703704,0,0)" xlink:href="#M"/><use transform="matrix(0.03703703703703704,0,0,0.03703703703703704,7.407407407407408,0)" xlink:href="#N"/><use transform="matrix(0.03703703703703704,0,0,0.03703703703703704,11.111111111111112,0)" xlink:href="#O"/><use transform="matrix(0.03703703703703704,0,0,0.03703703703703704,18.51851851851852,0)" xlink:href="#P"/><use transform="matrix(0.03703703703703704,0,0,0.03703703703703704,25.92592592592593,0)" xlink:href="#P"/></g><path d="M54-142c48-35 137-8 131 61C196 18 31 33 14-55l32-4c7 23 22 37 52 37 35-1 51-22 54-58 4-55-73-65-99-34H22l8-134h141v27H59" id="Q"/><g id="o"><use transform="matrix(0.03703703703703704,0,0,0.03703703703703704,0,0)" xlink:href="#M"/><use transform="matrix(0.03703703703703704,0,0,0.03703703703703704,7.407407407407408,0)" xlink:href="#N"/><use transform="matrix(0.03703703703703704,0,0,0.03703703703703704,11.111111111111112,0)" xlink:href="#Q"/></g><use transform="matrix(0.06049382716049383,0,0,0.06049382716049383,0,-8.71111111111111)" xlink:href="#t" id="p"/><use transform="matrix(0.06049382716049383,0,0,0.06049382716049383,0,-8.71111111111111)" xlink:href="#L" id="q"/></defs></g></svg>