<svg xmlns="http://www.w3.org/2000/svg" xmlns:xlink="http://www.w3.org/1999/xlink" xmlns:lucid="lucid" width="572" height="480"><g transform="translate(-1041 -403)" lucid:page-tab-id="0_0"><path d="M1456 732.82h100v60h-100z" stroke="#000" stroke-opacity="0" stroke-width="2" fill="#fff" fill-opacity="0"/><use xlink:href="#a" transform="matrix(1,0,0,1,1461.0000000000002,737.8175419471365) translate(16.459259259259255 30.708333333333336)"/><path d="M1166.77 504.6h80v60h-80z" stroke="#000" stroke-opacity="0" stroke-width="2" fill="#fff" fill-opacity="0"/><use xlink:href="#b" transform="matrix(1,0,0,1,1171.769779892921,509.59960341066835) translate(6.459259259259255 30.708333333333336)"/><path d="M1036.05 532.9h100v60h-100z" stroke="#000" stroke-opacity="0" stroke-width="2" fill="#fff" fill-opacity="0"/><use xlink:href="#c" transform="matrix(1,0,0,1,1041.0515566131273,537.9073567321041) translate(29.396296296296295 30.708333333333336)"/><path d="M1148.05 422.75h120v60h-120z" stroke="#000" stroke-opacity="0" stroke-width="2" fill="#fff" fill-opacity="0"/><use xlink:href="#d" transform="matrix(1,0,0,1,1153.0515566131273,427.7500784761033) translate(17.061728395061728 31.138888888888893)"/><path d="M1496 750.9h120v60h-120z" stroke="#000" stroke-opacity="0" stroke-width="2" fill="#fff" fill-opacity="0"/><use xlink:href="#e" transform="matrix(1,0,0,1,1501.0000000000002,755.9073567321041) translate(23.888888888888886 31.138888888888893)"/><path d="M1328.42 781.24l-.9-10.3-2.68-9.67-3-6.8-5.5-9.74M1328.4 781.22l.1 1.02" stroke="#000" stroke-width="2" fill="none"/><path d="M1308.82 731.44l11.06 10.14-8.07 4.56z" stroke="#000" stroke-width="2"/><path d="M1329.08 742.24H1352v20.17h-22.92z" fill="#fff" fill-opacity="0"/><path d="M1351.85 743.5l-5.9 10.82v.74c0 2 .5 4.1 1.42 4.1.58 0 1.25-.78 2.12-3.06l.65.3c-.9 3.06-2.2 5.22-4.2 5.22-1.56 0-2.06-1.83-2.14-4.36-2.07 2.53-4.93 4.44-8.04 4.44-4.03 0-5.56-2.82-5.56-6.3 0-3.37 1.45-6.9 3.77-9.26 1.83-1.87 4.6-3.2 7.18-3.2 3.53 0 5.23 2.5 5.23 4.94l1.9-4.4h3.57m-7.88 6.48c0-2.82-.54-6.14-3.2-6.14-2.6 0-7.17 5.64-7.17 12.24 0 2.36.75 4.77 2.86 4.77 2.9 0 5.73-5.6 6.85-7.93.17-.78.67-1.82.67-2.94"/><path d="M1055.23 787.93h212.82v99.6h-212.82z" stroke="#000" stroke-opacity="0" stroke-width="2" fill="#fff" fill-opacity="0"/><use xlink:href="#f" transform="matrix(1,0,0,1,1060.2337894110647,792.9306420280352) translate(11.625925925925912 35.395833333333336)"/><use xlink:href="#g" transform="matrix(1,0,0,1,1060.2337894110647,792.9306420280352) translate(94.44074074074072 35.395833333333336)"/><use xlink:href="#h" transform="matrix(1,0,0,1,1060.2337894110647,792.9306420280352) translate(164.78148148148148 35.395833333333336)"/><use xlink:href="#i" transform="matrix(1,0,0,1,1060.2337894110647,792.9306420280352) translate(27.096296296296302 64.19583333333333)"/><use xlink:href="#j" transform="matrix(1,0,0,1,1060.2337894110647,792.9306420280352) translate(75.91111111111111 64.19583333333333)"/><use xlink:href="#k" transform="matrix(1,0,0,1,1060.2337894110647,792.9306420280352) translate(146.25185185185185 64.19583333333333)"/><path d="M1207.72 782.24L1477.5 781M1207.74 782.24h-1.02" stroke="#000" stroke-width="2" fill="none"/><path d="M1492.76 780.92l-14.24 4.7-.04-9.27z" stroke="#000" stroke-width="2"/><path d="M1206.72 781.24l.05-229.83M1206.72 781.22v1.02" stroke="#000" stroke-width="2" fill="none"/><path d="M1206.77 536.14l4.63 14.27h-9.27z" stroke="#000" stroke-width="2"/><path d="M1206.8 780.6l192.52-110.08M1206.82 780.6l-.9.5" stroke="#000" stroke-width="2" fill="none"/><path d="M1412.58 662.94l-10.1 11.1-4.6-8.04z" stroke="#000" stroke-width="2"/><path d="M1205.45 780.23l-110.5-201.34M1205.44 780.2l.5.9" stroke="#000" stroke-width="2" fill="none"/><path d="M1087.6 565.5l10.94 10.28-8.13 4.46z" stroke="#000" stroke-width="2"/><path d="M1036.05 502.67h100v60h-100z" stroke="#000" stroke-opacity="0" stroke-width="2" fill="#fff" fill-opacity="0"/><use xlink:href="#l" transform="matrix(1,0,0,1,1041.0515566131273,507.6666666666665) translate(30.925925925925924 30.708333333333336)"/><path d="M1166.77 472.9h80v60h-80z" stroke="#000" stroke-opacity="0" stroke-width="2" fill="#fff" fill-opacity="0"/><use xlink:href="#m" transform="matrix(1,0,0,1,1171.769779892921,477.907356732104) translate(6.459259259259255 30.708333333333336)"/><path d="M1365.38 601.33h100v60h-100z" stroke="#000" stroke-opacity="0" stroke-width="2" fill="#fff" fill-opacity="0"/><use xlink:href="#n" transform="matrix(1,0,0,1,1370.3848899464608,606.3333333333333) translate(30.925925925925924 30.708333333333336)"/><path d="M1365.38 621.33h100v60h-100z" stroke="#000" stroke-opacity="0" stroke-width="2" fill="#fff" fill-opacity="0"/><g><use xlink:href="#o" transform="matrix(1,0,0,1,1370.3848899464608,626.3333333333333) translate(29.396296296296295 30.708333333333336)"/></g><path d="M1466 704.06h80v60h-80z" stroke="#000" stroke-opacity="0" stroke-width="2" fill="#fff" fill-opacity="0"/><g><use xlink:href="#p" transform="matrix(1,0,0,1,1471.0000000000002,709.0560441288662) translate(6.459259259259255 30.708333333333336)"/></g><path d="M1221.65 780.06c0 8.17-6.62 14.8-14.8 14.8-8.17 0-14.8-6.63-14.8-14.8 0-8.18 6.63-14.8 14.8-14.8 8.18 0 14.8 6.62 14.8 14.8z" stroke="#000" stroke-width="2" fill-opacity="0"/><defs><path d="M195 0l-74-108L45 0H8l94-129-87-119h37l69 98 67-98h37l-84 118L233 0h-38" id="q"/><path d="M30 0v-248h187v28H63v79h144v27H63v87h162V0H30" id="r"/><path d="M190 0L58-211 59 0H30v-248h39L202-35l-2-213h31V0h-41" id="s"/><path d="M232-93c-1 65-40 97-104 97C67 4 28-28 28-90v-158h33c8 89-33 224 67 224 102 0 64-133 71-224h33v155" id="t"/><g id="a"><use transform="matrix(0.07407407407407408,0,0,0.07407407407407408,0,0)" xlink:href="#q"/><use transform="matrix(0.05185185185185186,0,0,0.05185185185185186,17.77777777777778,-7.466666666666668)" xlink:href="#r"/><use transform="matrix(0.05185185185185186,0,0,0.05185185185185186,30.22222222222223,-7.466666666666668)" xlink:href="#s"/><use transform="matrix(0.05185185185185186,0,0,0.05185185185185186,43.65185185185186,-7.466666666666668)" xlink:href="#t"/></g><path d="M137-103V0h-34v-103L8-248h37l75 118 75-118h37" id="u"/><g id="b"><use transform="matrix(0.07407407407407408,0,0,0.07407407407407408,0,0)" xlink:href="#u"/><use transform="matrix(0.05185185185185186,0,0,0.05185185185185186,17.77777777777778,-7.466666666666668)" xlink:href="#r"/><use transform="matrix(0.05185185185185186,0,0,0.05185185185185186,30.22222222222223,-7.466666666666668)" xlink:href="#s"/><use transform="matrix(0.05185185185185186,0,0,0.05185185185185186,43.65185185185186,-7.466666666666668)" xlink:href="#t"/></g><g id="c"><use transform="matrix(0.07407407407407408,0,0,0.07407407407407408,0,0)" xlink:href="#u"/><use transform="matrix(0.05185185185185186,0,0,0.05185185185185186,17.77777777777778,-7.466666666666668)" xlink:href="#s"/></g><path d="M100-194c62-1 85 37 85 99 1 63-27 99-86 99S16-35 15-95c0-66 28-99 85-99zM99-20c44 1 53-31 53-75 0-43-8-75-51-75s-53 32-53 75 10 74 51 75" id="v"/><path d="M114-163C36-179 61-72 57 0H25l-1-190h30c1 12-1 29 2 39 6-27 23-49 58-41v29" id="w"/><path d="M59-47c-2 24 18 29 38 22v24C64 9 27 4 27-40v-127H5v-23h24l9-43h21v43h35v23H59v120" id="x"/><path d="M106-169C34-169 62-67 57 0H25v-261h32l-1 103c12-21 28-36 61-36 89 0 53 116 60 194h-32v-121c2-32-8-49-39-48" id="y"/><g id="d"><use transform="matrix(0.08641975308641976,0,0,0.08641975308641976,0,0)" xlink:href="#s"/><use transform="matrix(0.08641975308641976,0,0,0.08641975308641976,22.38271604938272,0)" xlink:href="#v"/><use transform="matrix(0.08641975308641976,0,0,0.08641975308641976,39.66666666666667,0)" xlink:href="#w"/><use transform="matrix(0.08641975308641976,0,0,0.08641975308641976,49.95061728395062,0)" xlink:href="#x"/><use transform="matrix(0.08641975308641976,0,0,0.08641975308641976,58.592592592592595,0)" xlink:href="#y"/></g><path d="M141-36C126-15 110 5 73 4 37 3 15-17 15-53c-1-64 63-63 125-63 3-35-9-54-41-54-24 1-41 7-42 31l-33-3c5-37 33-52 76-52 45 0 72 20 72 64v82c-1 20 7 32 28 27v20c-31 9-61-2-59-35zM48-53c0 20 12 33 32 33 41-3 63-29 60-74-43 2-92-5-92 41" id="z"/><path d="M135-143c-3-34-86-38-87 0 15 53 115 12 119 90S17 21 10-45l28-5c4 36 97 45 98 0-10-56-113-15-118-90-4-57 82-63 122-42 12 7 21 19 24 35" id="A"/><g id="e"><use transform="matrix(0.08641975308641976,0,0,0.08641975308641976,0,0)" xlink:href="#r"/><use transform="matrix(0.08641975308641976,0,0,0.08641975308641976,20.740740740740744,0)" xlink:href="#z"/><use transform="matrix(0.08641975308641976,0,0,0.08641975308641976,38.0246913580247,0)" xlink:href="#A"/><use transform="matrix(0.08641975308641976,0,0,0.08641975308641976,53.580246913580254,0)" xlink:href="#x"/></g><path d="M30-248c118-7 216 8 213 122C240-48 200 0 122 0H30v-248zM63-27c89 8 146-16 146-99s-60-101-146-95v194" id="B"/><path d="M206 0h-36l-40-164L89 0H53L-1-190h32L70-26l43-164h34l41 164 42-164h31" id="C"/><path d="M117-194c89-4 53 116 60 194h-32v-121c0-31-8-49-39-48C34-167 62-67 57 0H25l-1-190h30c1 10-1 24 2 32 11-22 29-35 61-36" id="D"/><path d="M33-154v-36h34v36H33zM33 0v-36h34V0H33" id="E"/><g id="f"><use transform="matrix(0.07407407407407408,0,0,0.07407407407407408,0,0)" xlink:href="#B"/><use transform="matrix(0.07407407407407408,0,0,0.07407407407407408,19.185185185185187,0)" xlink:href="#v"/><use transform="matrix(0.07407407407407408,0,0,0.07407407407407408,34,0)" xlink:href="#C"/><use transform="matrix(0.07407407407407408,0,0,0.07407407407407408,53.18518518518519,0)" xlink:href="#D"/><use transform="matrix(0.07407407407407408,0,0,0.07407407407407408,68,0)" xlink:href="#E"/></g><path d="M209 0H11v-25l151-195H24v-28h176v25L50-27h159V0" id="F"/><path d="M68-38c1 34 0 65-14 84H32c9-13 17-26 17-46H33v-38h35" id="G"/><g id="g"><use transform="matrix(0.07407407407407408,0,0,0.07407407407407408,0,0)" xlink:href="#F"/><use transform="matrix(0.05185185185185186,0,0,0.05185185185185186,16.222222222222225,-7.466666666666668)" xlink:href="#s"/><use transform="matrix(0.05185185185185186,0,0,0.05185185185185186,29.651851851851855,-7.466666666666668)" xlink:href="#r"/><use transform="matrix(0.05185185185185186,0,0,0.05185185185185186,42.0962962962963,-7.466666666666668)" xlink:href="#B"/><use transform="matrix(0.07407407407407408,0,0,0.07407407407407408,55.52592592592593,0)" xlink:href="#G"/></g><path d="M30 0v-248h33v221h125V0H30" id="H"/><g id="h"><use transform="matrix(0.07407407407407408,0,0,0.07407407407407408,0,0)" xlink:href="#F"/><use transform="matrix(0.05185185185185186,0,0,0.05185185185185186,16.222222222222225,-7.466666666666668)" xlink:href="#H"/></g><path d="M115-194c55 1 70 41 70 98S169 2 115 4C84 4 66-9 55-30l1 105H24l-1-265h31l2 30c10-21 28-34 59-34zm-8 174c40 0 45-34 45-75s-6-73-45-74c-42 0-51 32-51 76 0 43 10 73 51 73" id="I"/><g id="i"><use transform="matrix(0.07407407407407408,0,0,0.07407407407407408,0,0)" xlink:href="#t"/><use transform="matrix(0.07407407407407408,0,0,0.07407407407407408,19.185185185185187,0)" xlink:href="#I"/><use transform="matrix(0.07407407407407408,0,0,0.07407407407407408,34,0)" xlink:href="#E"/></g><g id="j"><use transform="matrix(0.07407407407407408,0,0,0.07407407407407408,0,0)" xlink:href="#F"/><use transform="matrix(0.05185185185185186,0,0,0.05185185185185186,16.222222222222225,-7.466666666666668)" xlink:href="#r"/><use transform="matrix(0.05185185185185186,0,0,0.05185185185185186,28.66666666666667,-7.466666666666668)" xlink:href="#s"/><use transform="matrix(0.05185185185185186,0,0,0.05185185185185186,42.0962962962963,-7.466666666666668)" xlink:href="#t"/><use transform="matrix(0.07407407407407408,0,0,0.07407407407407408,55.52592592592593,0)" xlink:href="#G"/></g><g id="k"><use transform="matrix(0.07407407407407408,0,0,0.07407407407407408,0,0)" xlink:href="#F"/><use transform="matrix(0.05185185185185186,0,0,0.05185185185185186,16.222222222222225,-7.466666666666668)" xlink:href="#s"/></g><g id="l"><use transform="matrix(0.07407407407407408,0,0,0.07407407407407408,0,0)" xlink:href="#q"/><use transform="matrix(0.05185185185185186,0,0,0.05185185185185186,17.77777777777778,-7.466666666666668)" xlink:href="#H"/></g><g id="m"><use transform="matrix(0.07407407407407408,0,0,0.07407407407407408,0,0)" xlink:href="#q"/><use transform="matrix(0.05185185185185186,0,0,0.05185185185185186,17.77777777777778,-7.466666666666668)" xlink:href="#s"/><use transform="matrix(0.05185185185185186,0,0,0.05185185185185186,31.207407407407405,-7.466666666666668)" xlink:href="#r"/><use transform="matrix(0.05185185185185186,0,0,0.05185185185185186,43.65185185185186,-7.466666666666668)" xlink:href="#B"/></g><g id="n"><use transform="matrix(0.07407407407407408,0,0,0.07407407407407408,0,0)" xlink:href="#u"/><use transform="matrix(0.05185185185185186,0,0,0.05185185185185186,17.77777777777778,-7.466666666666668)" xlink:href="#H"/></g><g id="o"><use transform="matrix(0.07407407407407408,0,0,0.07407407407407408,0,0)" xlink:href="#q"/><use transform="matrix(0.05185185185185186,0,0,0.05185185185185186,17.77777777777778,-7.466666666666668)" xlink:href="#s"/></g><g id="p"><use transform="matrix(0.07407407407407408,0,0,0.07407407407407408,0,0)" xlink:href="#u"/><use transform="matrix(0.05185185185185186,0,0,0.05185185185185186,17.77777777777778,-7.466666666666668)" xlink:href="#s"/><use transform="matrix(0.05185185185185186,0,0,0.05185185185185186,31.207407407407405,-7.466666666666668)" xlink:href="#r"/><use transform="matrix(0.05185185185185186,0,0,0.05185185185185186,43.65185185185186,-7.466666666666668)" xlink:href="#B"/></g></defs></g></svg>